<?xml version="1.0" standalone="no"?>
<!DOCTYPE svg PUBLIC "-//W3C//DTD SVG 20010904//EN"
 "http://www.w3.org/TR/2001/REC-SVG-20010904/DTD/svg10.dtd">
<svg version="1.0" xmlns="http://www.w3.org/2000/svg"
 width="500.000000pt" height="500.000000pt" viewBox="0 0 500.000000 500.000000"
 preserveAspectRatio="xMidYMid meet">
<metadata>
Created by potrace 1.16, written by Peter Selinger 2001-2019
</metadata>
<g transform="translate(0.000000,500.000000) scale(0.100000,-0.100000)"
fill="rgb(227, 227, 227)" stroke="none">
<path d="M800 4237 l0 -677 670 0 c369 0 670 3 670 7 0 5 -117 125 -261 269
l-261 261 84 41 c302 147 630 211 936 183 407 -38 757 -186 1070 -453 222
-189 437 -514 528 -798 17 -54 65 -252 68 -285 32 -285 32 -283 2 -555 -9 -76
-61 -277 -95 -365 l-19 -50 90 -52 c50 -29 92 -53 95 -53 3 0 17 -8 31 -19 15
-10 54 -33 87 -51 33 -18 68 -38 77 -44 11 -7 21 -7 26 -1 10 10 78 184 87
220 3 11 18 71 34 133 16 63 32 135 36 160 3 26 11 72 17 102 15 73 15 508 0
580 -7 30 -14 75 -17 100 -3 25 -19 97 -35 160 -17 63 -32 123 -35 134 -13 52
-86 226 -143 341 -113 229 -237 400 -427 590 -136 137 -222 207 -390 316 -93
61 -303 169 -385 199 -19 6 -44 16 -55 20 -117 47 -270 86 -455 117 -116 19
-535 22 -620 5 -30 -6 -73 -14 -95 -16 -208 -25 -552 -150 -763 -278 -34 -21
-66 -38 -70 -38 -4 0 -114 107 -244 237 l-238 238 0 -678z"/>
<path d="M356 3298 c-20 -51 -38 -102 -41 -113 -3 -11 -19 -72 -35 -135 -17
-63 -32 -135 -35 -160 -3 -25 -11 -70 -17 -100 -15 -73 -15 -507 0 -580 6 -30
14 -73 16 -95 9 -79 78 -340 106 -400 5 -11 18 -43 29 -72 62 -160 185 -374
315 -548 78 -103 299 -324 401 -401 178 -133 418 -271 565 -324 19 -6 44 -16
55 -20 68 -27 205 -68 270 -81 247 -49 278 -52 515 -52 240 1 342 12 540 59
203 48 508 175 634 264 l41 29 243 -242 242 -242 0 678 0 677 -670 0 c-368 0
-670 -3 -670 -7 0 -5 117 -125 261 -269 l261 -261 -94 -45 c-213 -103 -409
-157 -656 -180 -116 -10 -156 -10 -295 5 -245 26 -418 74 -627 174 -502 242
-863 693 -990 1238 -12 50 -23 110 -26 135 -2 25 -9 81 -14 125 -13 101 -13
193 0 287 5 40 12 91 14 114 10 87 54 268 85 348 7 16 10 35 7 41 -3 10 -230
151 -321 200 -11 6 -32 19 -47 29 l-26 17 -36 -93z"/>
</g>
</svg>
