<?xml version="1.0" standalone="no"?>
<!DOCTYPE svg PUBLIC "-//W3C//DTD SVG 20010904//EN"
 "http://www.w3.org/TR/2001/REC-SVG-20010904/DTD/svg10.dtd">
<svg version="1.0" xmlns="http://www.w3.org/2000/svg"
 width="250.000000pt" height="250.000000pt" viewBox="0 0 250.000000 250.000000"
 preserveAspectRatio="xMidYMid meet">

<g transform="translate(0.000000,250.000000) scale(0.100000,-0.100000)"
fill="rgb(227, 227, 227)" stroke="none">
<path d="M1105 2178 c-3 -7 -6 -64 -7 -127 l-3 -113 -56 -18 c-31 -9 -81 -30
-112 -47 l-55 -30 -83 83 c-46 46 -88 84 -94 84 -13 0 -205 -192 -205 -205 0
-6 38 -48 84 -94 l83 -83 -30 -55 c-17 -31 -38 -81 -47 -112 l-18 -56 -123 -5
-124 -5 0 -145 0 -145 124 -5 123 -5 18 -56 c9 -31 30 -81 47 -112 l30 -55
-83 -83 c-46 -46 -84 -88 -84 -94 0 -13 192 -205 205 -205 6 0 48 38 94 84
l83 83 55 -30 c31 -17 81 -38 112 -47 l56 -18 5 -123 5 -124 145 0 145 0 5
124 5 123 56 18 c31 9 81 30 112 47 l55 30 83 -83 c46 -46 88 -84 94 -84 13 0
205 192 205 205 0 6 -38 48 -84 94 l-83 83 30 55 c17 31 38 81 47 112 l18 56
123 5 124 5 0 145 0 145 -124 5 -123 5 -18 56 c-9 31 -30 81 -47 112 l-30 55
83 83 c46 46 84 88 84 94 0 13 -192 205 -205 205 -6 0 -48 -38 -94 -84 l-83
-83 -55 30 c-31 17 -81 38 -112 47 l-56 18 -5 123 -5 124 -143 3 c-108 2 -144
0 -147 -10z m265 -148 l0 -119 43 -11 c77 -20 101 -30 162 -65 l60 -34 85 85
85 84 83 -83 82 -82 -84 -84 -85 -84 39 -71 c21 -39 40 -80 43 -91 3 -11 11
-39 17 -62 l11 -43 119 0 120 0 0 -120 0 -120 -119 0 c-105 0 -120 -2 -125
-17 -3 -10 -10 -38 -16 -63 -6 -25 -29 -77 -50 -116 l-39 -71 85 -84 84 -84
-82 -82 -83 -83 -85 84 -85 85 -60 -34 c-61 -35 -85 -45 -162 -65 l-43 -11 0
-119 0 -120 -120 0 -120 0 0 119 c0 105 -2 120 -17 125 -10 3 -38 10 -63 16
-25 6 -77 29 -116 50 l-71 39 -84 -85 -84 -84 -82 82 -83 83 84 85 85 85 -34
60 c-35 61 -45 85 -65 163 l-11 42 -119 0 -120 0 0 120 0 120 119 0 c105 0
120 2 125 18 3 9 10 37 16 62 6 25 29 77 50 116 l39 71 -85 84 -84 84 82 82
83 83 85 -84 85 -85 60 34 c61 35 85 45 163 65 l42 11 0 119 0 120 120 0 120
0 0 -120z"/>
<path d="M1134 1717 c-155 -40 -289 -165 -341 -317 -25 -75 -25 -224 0 -300
30 -91 102 -187 182 -241 96 -66 157 -84 280 -83 120 0 184 20 280 88 70 50
140 144 171 231 25 69 25 240 0 310 -48 133 -164 251 -293 297 -72 25 -208 33
-279 15z m202 -28 c175 -32 325 -188 355 -367 59 -358 -326 -639 -645 -469
-270 144 -325 498 -111 712 110 109 248 152 401 124z"/>
<path d="M1193 1419 c-75 -22 -133 -119 -118 -198 30 -161 241 -202 327 -63
48 78 21 194 -56 242 -40 24 -109 33 -153 19z m135 -47 c89 -57 87 -187 -4
-247 -35 -23 -113 -23 -148 0 -53 35 -72 79 -68 158 2 35 71 104 109 109 39 6
84 -2 111 -20z"/>
</g>
</svg>
