<?xml version="1.0" standalone="no"?>
<!DOCTYPE svg PUBLIC "-//W3C//DTD SVG 20010904//EN"
 "http://www.w3.org/TR/2001/REC-SVG-20010904/DTD/svg10.dtd">
<svg version="1.0" xmlns="http://www.w3.org/2000/svg"
 width="500.000000pt" height="500.000000pt" viewBox="0 0 500.000000 500.000000"
 preserveAspectRatio="xMidYMid meet">
<metadata>
Created by potrace 1.14, written by Peter Selinger 2001-2017
</metadata>
<g transform="translate(0.000000,500.000000) scale(0.100000,-0.100000)"
fill="#000000" stroke="none">
<path d="M1975 4220 c3 -5 -2 -10 -12 -10 -19 -1 -75 -29 -58 -30 6 0 -1 -7
-15 -15 -14 -8 -22 -14 -17 -15 4 0 -1 -9 -10 -19 -27 -30 -43 -50 -43 -54 0
-3 -9 -25 -20 -51 -12 -25 -20 -49 -20 -52 1 -4 -2 -10 -7 -13 -9 -7 -31 -53
-29 -62 0 -4 -6 -15 -15 -25 -9 -11 -20 -29 -23 -41 -4 -13 -12 -23 -17 -23
-5 0 -8 -3 -7 -7 2 -13 -21 -63 -30 -63 -4 0 -8 -10 -9 -22 -1 -11 -6 -24 -11
-27 -5 -3 -24 -36 -42 -74 -18 -37 -36 -70 -41 -73 -5 -3 -7 -10 -4 -15 4 -5
1 -9 -5 -9 -6 0 -9 -4 -6 -9 3 -5 -1 -14 -9 -21 -8 -7 -12 -16 -9 -21 3 -5 0
-9 -6 -9 -6 0 -8 -4 -5 -10 3 -5 1 -10 -4 -10 -6 0 -11 -7 -11 -15 0 -8 -5
-15 -11 -15 -5 0 -7 -4 -4 -10 3 -5 1 -10 -4 -10 -6 0 -10 -3 -9 -7 2 -10 -63
-146 -73 -153 -4 -3 -11 -18 -14 -33 -4 -15 -11 -27 -17 -27 -5 0 -6 -4 -3
-10 3 -5 1 -10 -4 -10 -6 0 -11 -7 -11 -15 0 -8 -4 -15 -10 -15 -5 0 -7 -6 -4
-14 3 -8 0 -17 -5 -21 -6 -3 -10 -9 -8 -13 2 -4 -4 -15 -15 -24 -10 -10 -18
-15 -19 -10 0 4 -2 17 -3 30 -2 12 2 22 7 22 5 0 5 6 -2 13 -8 10 -7 17 1 25
9 9 9 12 0 12 -9 0 -10 5 -3 18 6 11 6 24 1 32 -5 9 -5 19 2 27 7 9 7 13 -1
13 -8 0 -9 6 -2 18 6 11 6 24 0 35 -7 12 -6 17 2 17 8 0 7 5 -2 17 -12 14 -12
15 -1 9 11 -7 12 -4 3 13 -9 16 -9 21 0 21 8 0 9 4 0 13 -8 10 -7 17 1 25 9 9
9 12 0 12 -9 0 -10 5 -3 18 6 11 6 24 0 35 -7 12 -6 17 2 17 8 0 9 4 0 13 -8
10 -7 17 1 25 8 8 8 12 1 12 -10 0 -10 47 1 57 3 3 1 14 -5 24 -7 14 -6 19 2
19 8 0 9 4 0 13 -6 8 -8 17 -4 21 4 3 8 16 10 29 2 12 8 26 13 31 6 6 10 17
10 26 0 10 9 27 20 40 12 13 18 30 16 37 -3 7 -2 13 2 13 13 0 39 67 38 99 -1
17 4 31 9 31 6 0 5 3 -1 8 -6 4 -10 15 -8 25 1 9 -2 17 -8 17 -6 0 -7 7 -4 16
3 8 2 13 -2 10 -5 -3 -16 11 -27 29 -10 19 -26 37 -36 40 -11 4 -19 11 -19 16
0 5 -9 9 -19 9 -10 0 -22 8 -25 17 -6 14 -9 15 -15 4 -6 -10 -10 -9 -15 4 -4
11 -12 14 -26 10 -11 -3 -20 -2 -20 3 0 5 -6 9 -12 10 -51 5 -77 10 -87 16 -6
4 -11 1 -11 -6 0 -10 -2 -10 -9 1 -5 7 -13 11 -19 7 -6 -3 -13 0 -15 6 -3 7
-6 9 -6 3 -1 -6 -48 -9 -124 -9 -67 1 -126 -1 -132 -4 -5 -4 -22 -7 -37 -8
-15 -1 -35 -7 -45 -15 -11 -9 -14 -10 -9 -2 5 9 2 11 -8 7 -9 -3 -16 -10 -16
-15 0 -4 -6 -6 -14 -3 -8 3 -17 0 -21 -5 -3 -6 -11 -9 -16 -6 -5 4 -9 2 -9 -4
0 -5 -14 -18 -30 -28 -17 -9 -30 -25 -30 -35 0 -10 -4 -18 -9 -18 -5 0 -9 -34
-9 -75 1 -42 6 -75 11 -75 6 0 7 -3 4 -7 -4 -3 -3 -11 2 -17 11 -14 36 -88 33
-98 -1 -5 3 -8 8 -8 6 0 10 -13 10 -30 0 -16 3 -30 8 -30 9 0 9 -261 0 -276
-4 -6 -4 -14 0 -18 10 -10 10 -216 0 -222 -5 -3 -5 -11 -1 -17 10 -17 11 -177
1 -183 -4 -3 -5 -11 -1 -17 12 -20 14 -49 3 -62 -5 -6 -7 -15 -3 -19 12 -11
14 -48 3 -61 -5 -6 -7 -15 -3 -19 12 -11 14 -48 3 -61 -5 -6 -7 -15 -3 -19 12
-11 14 -48 3 -61 -5 -6 -7 -15 -3 -19 12 -11 14 -48 3 -61 -5 -6 -7 -15 -3
-19 12 -11 14 -48 3 -61 -5 -6 -7 -15 -3 -19 12 -11 14 -48 3 -61 -5 -6 -6
-15 -2 -19 4 -4 8 -62 10 -129 5 -250 7 -287 13 -287 3 0 6 -7 6 -15 0 -8 -5
-15 -11 -15 -6 0 -5 -4 3 -9 8 -5 9 -11 3 -15 -7 -4 -6 -15 3 -33 11 -21 12
-29 2 -35 -7 -4 -7 -8 -2 -8 6 0 10 -18 9 -40 0 -22 2 -40 6 -40 4 0 8 -18 9
-40 2 -61 4 -70 12 -70 4 0 6 -9 4 -19 -2 -11 3 -25 10 -31 8 -6 11 -18 8 -25
-3 -8 4 -30 16 -48 11 -19 17 -38 13 -42 -4 -5 -2 -6 3 -3 12 6 46 -27 37 -36
-3 -3 -1 -6 4 -6 5 0 27 -15 49 -34 21 -19 45 -32 52 -29 8 3 13 2 11 -3 -2
-5 1 -10 6 -11 5 -1 12 -6 15 -11 3 -6 13 -12 21 -14 8 -2 21 -9 28 -16 8 -7
17 -10 22 -7 5 3 10 0 12 -6 2 -6 15 -12 30 -12 14 -1 24 -6 20 -11 -3 -5 2
-7 11 -3 10 4 17 1 17 -5 0 -6 3 -8 7 -5 3 4 13 1 21 -6 13 -10 14 -9 7 3 -7
12 -6 13 6 4 15 -12 15 -12 109 -13 91 -1 120 2 120 11 0 4 3 8 8 7 15 -2 52
14 52 23 0 5 4 7 9 3 11 -6 63 55 68 82 2 10 5 27 6 38 2 11 6 26 10 33 5 7 3
12 -5 12 -9 0 -9 3 2 10 13 9 13 11 0 20 -12 8 -12 10 -1 10 10 0 11 3 2 13
-6 8 -8 17 -4 20 3 4 0 13 -6 21 -9 10 -9 16 -1 21 8 5 8 11 -1 21 -9 11 -8
14 2 14 9 0 10 3 4 8 -13 9 -15 52 -2 52 6 0 6 4 0 13 -11 13 -10 49 1 86 6
18 5 22 -5 17 -9 -5 -9 -3 1 6 8 7 16 24 17 38 3 32 10 84 13 90 1 3 2 9 1 14
-1 4 4 14 10 22 9 11 8 14 -2 14 -12 0 -12 2 -1 9 8 5 15 20 15 35 1 14 5 26
8 26 3 0 6 7 7 15 1 8 3 22 4 30 1 8 4 15 8 15 6 0 8 8 12 50 1 11 6 20 10 20
4 0 8 7 8 15 0 8 4 15 9 15 5 0 9 6 8 13 -1 32 4 48 13 42 6 -4 9 3 7 17 -2
12 2 29 10 36 7 8 11 18 8 23 -4 5 -1 9 4 9 6 0 11 6 11 13 0 7 9 30 20 51 10
22 17 44 13 50 -3 6 -2 8 2 3 7 -6 32 37 35 58 0 3 9 21 20 40 11 19 29 51 40
71 11 19 18 39 15 45 -4 5 1 9 9 9 9 0 17 5 17 10 3 20 4 25 12 38 5 6 5 12 1
12 -4 0 0 6 9 13 9 6 17 19 19 27 3 14 7 20 36 55 7 8 10 15 6 15 -4 0 3 12
17 27 13 14 17 23 9 18 -8 -4 -6 1 6 12 11 11 26 35 34 52 12 31 36 42 38 19
0 -7 4 -33 7 -58 3 -25 6 -51 7 -57 1 -7 5 -13 10 -13 5 0 6 -5 3 -10 -4 -6
-11 -7 -17 -4 -7 4 -7 0 -1 -12 11 -23 11 -34 -1 -53 -6 -9 -5 -12 1 -8 6 4
13 -2 16 -13 3 -11 2 -18 -3 -15 -10 6 -7 -66 4 -84 6 -9 5 -12 -2 -7 -7 4
-10 -1 -9 -14 1 -11 5 -20 10 -20 4 0 5 -5 2 -10 -4 -6 -11 -7 -17 -4 -7 4 -7
0 0 -13 7 -11 7 -25 1 -35 -5 -10 -5 -19 0 -22 4 -3 7 -20 5 -37 -2 -18 2 -39
9 -47 10 -13 9 -14 -2 -7 -11 6 -13 4 -8 -8 3 -10 2 -17 -4 -17 -6 0 -7 -5 -3
-12 12 -18 11 -58 -1 -58 -5 0 -3 -5 5 -10 13 -9 13 -10 0 -10 -13 0 -13 -1 0
-11 10 -7 11 -12 3 -15 -8 -4 -9 -14 -3 -35 6 -19 5 -29 -2 -29 -6 0 -6 -6 2
-15 10 -12 10 -15 -1 -15 -12 0 -12 -2 0 -9 10 -6 10 -10 1 -16 -9 -6 -9 -10
1 -16 8 -5 10 -9 4 -9 -6 0 -10 -56 -9 -149 0 -95 -3 -148 -9 -144 -6 4 -7 1
-1 -8 13 -20 13 -100 1 -92 -6 4 -7 1 -1 -8 5 -8 9 -53 10 -100 0 -47 4 -92 9
-99 5 -9 4 -11 -3 -6 -16 9 -15 -7 0 -22 7 -7 8 -12 3 -12 -11 0 -12 -50 -2
-67 4 -5 5 -20 2 -31 -2 -12 1 -24 6 -27 5 -4 6 -12 2 -18 -11 -18 -11 -47 0
-47 5 0 4 -7 -3 -15 -7 -9 -8 -15 -2 -15 6 0 10 -19 10 -43 0 -23 1 -46 3 -52
1 -5 3 -14 4 -20 2 -5 4 -12 5 -15 1 -3 4 -18 6 -35 3 -16 10 -35 16 -42 7 -9
7 -13 0 -13 -15 0 55 -120 86 -147 14 -13 21 -23 17 -23 -5 0 0 -6 10 -14 11
-8 23 -12 27 -10 5 3 8 -3 8 -12 0 -10 3 -15 6 -12 3 4 14 -1 24 -10 40 -36
51 -43 60 -37 6 3 10 -2 10 -11 0 -10 3 -15 6 -11 4 3 20 -1 36 -9 16 -8 33
-12 39 -9 5 4 8 1 7 -6 -2 -7 6 -13 17 -13 11 0 23 -5 27 -11 5 -6 8 -4 8 5 1
12 3 11 11 -3 6 -9 14 -15 20 -12 5 4 9 2 9 -2 0 -5 43 -10 96 -12 63 -1 94 1
90 8 -4 6 2 8 14 6 11 -2 20 1 20 7 0 6 3 8 7 5 3 -4 12 -2 20 5 7 6 16 8 19
6 3 -3 21 9 39 27 42 39 74 108 78 164 1 23 7 41 12 41 6 0 4 4 -4 9 -9 6 -10
10 -2 16 9 5 9 11 -1 23 -11 13 -11 14 1 7 11 -6 13 -4 8 7 -3 9 -1 20 5 26 6
6 6 12 0 16 -5 3 -6 22 -3 43 4 21 6 45 6 53 0 8 4 18 10 22 6 5 5 8 -4 8 -11
0 -11 3 0 17 12 15 12 16 -1 8 -12 -7 -13 -6 -4 6 6 8 15 28 19 44 10 37 9 34
23 68 7 16 12 37 12 48 0 10 4 19 9 19 6 0 8 9 6 20 -2 11 1 20 6 20 6 0 7 5
4 10 -3 6 -2 10 4 10 5 0 8 8 7 17 -2 10 4 24 11 32 12 11 12 15 1 22 -11 7
-11 9 0 9 7 0 10 5 7 10 -3 6 1 13 10 16 9 4 12 9 7 13 -6 4 -4 19 7 42 10 19
15 41 13 48 -3 8 -1 11 4 8 5 -3 10 6 11 20 0 14 5 28 10 32 7 5 12 23 15 59
1 6 5 12 10 12 4 0 7 3 7 8 -4 19 15 72 25 72 6 0 4 5 -4 10 -8 5 -10 10 -4
10 6 0 14 12 17 28 3 15 11 41 17 57 6 17 11 32 12 35 0 3 4 10 10 17 5 7 7
17 3 23 -3 5 -1 10 6 10 7 0 9 3 6 7 -4 3 1 15 10 26 13 15 14 18 3 12 -13 -8
-13 -6 -2 8 8 9 11 20 8 26 -3 5 1 11 9 15 8 3 12 12 9 21 -3 8 -1 15 4 15 6
0 9 9 7 21 -2 12 3 28 11 36 8 9 13 22 10 29 -3 8 -2 14 2 14 4 0 12 11 19 25
6 15 7 22 1 19 -6 -4 -2 5 7 20 10 14 13 26 9 26 -5 0 -3 4 4 8 7 5 14 22 15
39 1 17 5 29 8 27 7 -4 17 21 25 61 3 10 9 22 15 26 6 3 10 8 8 10 -5 9 26 79
35 79 5 0 6 3 3 6 -3 4 -1 16 5 28 7 11 11 24 10 29 -1 4 3 7 9 7 5 0 8 4 4 9
-3 6 2 14 11 19 9 5 15 12 15 15 -3 19 0 30 5 24 4 -3 13 1 21 9 16 16 23 14
27 -8 2 -7 6 -21 11 -30 4 -10 5 -24 2 -32 -3 -8 -1 -17 6 -20 9 -3 9 -5 0 -5
-6 -1 -9 -10 -6 -21 3 -11 10 -17 16 -13 6 4 7 1 1 -8 -14 -23 -15 -49 -1 -49
9 0 8 -3 -2 -9 -10 -6 -11 -13 -2 -29 6 -12 7 -23 2 -26 -10 -7 -9 -25 2 -43
5 -8 3 -13 -4 -13 -8 0 -9 -3 0 -13 6 -8 9 -16 6 -19 -9 -9 -12 -68 -4 -62 5
3 5 -6 -1 -20 -6 -17 -6 -26 3 -30 9 -3 9 -5 -1 -5 -8 -1 -10 -7 -5 -18 10
-22 10 -44 0 -60 -4 -6 -3 -14 3 -18 6 -4 7 -12 3 -18 -11 -17 -11 -57 -1 -57
5 0 6 -5 3 -10 -4 -6 -11 -7 -17 -4 -7 4 -7 0 0 -12 5 -11 7 -25 4 -33 -3 -10
0 -11 9 -5 11 6 12 5 3 -7 -15 -20 -16 -61 -1 -52 9 5 9 3 1 -8 -6 -8 -11 -23
-11 -34 0 -11 5 -26 11 -34 8 -11 8 -13 -1 -8 -15 9 -14 -32 1 -52 8 -11 8
-13 -1 -8 -15 9 -14 -32 1 -52 8 -11 8 -13 0 -8 -7 4 -11 -6 -11 -28 0 -22 4
-32 11 -28 6 4 5 -1 -2 -10 -8 -9 -11 -21 -7 -27 4 -6 1 -18 -7 -27 -7 -9 -8
-14 -2 -10 13 7 27 -17 16 -27 -10 -11 -11 -36 -1 -36 6 0 7 -6 2 -12 -13 -21
-14 -50 -2 -42 8 5 8 1 0 -14 -8 -14 -8 -23 -1 -27 8 -5 7 -11 -1 -21 -9 -11
-9 -14 1 -14 10 0 10 -3 0 -15 -9 -10 -9 -15 -1 -15 13 0 10 -22 -4 -32 -7 -5
-6 -8 0 -8 7 0 11 -27 11 -65 1 -37 6 -71 14 -80 11 -13 10 -15 -6 -9 -15 6
-17 4 -7 -6 6 -7 9 -19 6 -28 -5 -11 -2 -13 6 -7 10 6 11 3 3 -12 -7 -12 -7
-25 -1 -36 6 -9 7 -17 4 -17 -3 0 -1 -10 6 -21 9 -17 8 -20 -2 -14 -9 6 -10 3
-5 -11 5 -10 9 -25 9 -31 0 -7 4 -13 8 -13 4 0 6 -9 4 -20 -2 -11 0 -20 5 -20
4 0 7 -8 6 -18 -2 -9 3 -26 11 -38 7 -11 10 -24 6 -29 -5 -4 -3 -6 2 -3 6 3
16 0 23 -8 7 -8 10 -14 7 -14 -3 0 5 -11 19 -25 14 -14 28 -25 31 -25 3 0 17
-12 32 -28 30 -29 66 -52 84 -52 6 0 17 -7 26 -15 8 -8 19 -13 24 -10 5 4 9 2
9 -3 0 -5 6 -9 13 -9 22 -1 66 -11 77 -18 6 -4 18 -1 26 6 12 9 13 9 9 -2 -4
-11 9 -14 65 -14 38 0 70 -4 70 -9 0 -5 6 -4 13 1 6 5 31 9 55 8 23 0 42 2 42
6 0 5 9 6 20 4 11 -2 20 1 20 6 0 6 5 7 10 4 6 -3 10 -2 10 4 0 6 7 8 15 5 8
-4 17 1 21 10 3 9 10 14 14 11 14 -9 86 70 111 121 23 48 29 66 31 92 1 6 6
12 12 12 7 0 7 3 1 8 -5 4 -11 13 -13 21 -3 12 -1 12 14 0 16 -13 16 -12 6 7
-6 12 -8 24 -5 28 3 3 1 6 -5 6 -7 0 -12 9 -12 19 0 11 -7 27 -16 35 -8 9 -13
16 -10 16 3 0 -6 11 -20 25 -14 14 -29 25 -35 25 -6 0 -8 4 -5 8 3 5 -6 15
-19 22 -14 7 -25 17 -25 22 0 4 -5 8 -11 8 -13 0 -27 15 -59 59 l-24 35 -1
365 c0 201 -4 372 -9 380 -6 10 -5 12 2 7 7 -4 12 -3 12 3 0 5 -5 13 -10 16
-6 4 -7 12 -3 18 11 17 11 180 0 194 -5 7 -5 18 -1 25 11 17 12 118 2 124 -5
3 -6 10 -3 15 12 19 13 49 2 49 -8 0 -8 3 -2 8 13 9 14 55 0 64 -7 5 -7 8 1 8
11 0 12 49 1 67 -4 6 -3 14 1 17 11 6 10 56 0 72 -4 6 -4 14 -1 18 11 11 10
66 -1 66 -7 0 -8 3 -1 8 13 9 14 55 0 64 -7 5 -7 8 1 8 11 0 13 84 2 96 -4 4
-3 15 2 25 7 12 7 20 0 24 -6 4 -7 11 -4 17 11 17 12 128 2 134 -4 3 -5 11 -1
17 12 20 11 420 -1 436 -9 12 -8 13 4 6 12 -7 13 -6 3 7 -7 8 -10 18 -6 21 3
4 1 7 -6 7 -7 0 -10 4 -7 8 3 5 -4 19 -15 30 -11 12 -17 22 -14 22 3 0 -4 9
-15 20 -11 11 -24 20 -30 20 -5 0 -10 5 -10 10 0 6 -7 10 -15 10 -8 0 -15 5
-15 12 0 6 -3 9 -6 5 -4 -3 -19 0 -35 8 -15 8 -37 15 -48 15 -10 0 -22 6 -24
13 -4 9 -6 9 -6 -1 -1 -8 -6 -10 -13 -5 -17 10 -34 13 -95 16 -28 1 -55 5 -59
9 -3 4 -16 2 -27 -4 -16 -8 -22 -8 -25 0 -3 9 -9 9 -24 1 -16 -8 -19 -8 -13 1
6 9 3 9 -13 1 -14 -7 -23 -8 -27 -1 -4 6 -12 7 -18 3 -7 -4 -28 -9 -47 -10
-47 -4 -63 -7 -77 -16 -8 -5 -13 -3 -13 5 0 10 -2 10 -9 -1 -5 -7 -14 -10 -20
-7 -6 4 -11 2 -11 -3 0 -6 -3 -10 -7 -10 -5 1 -11 0 -15 -1 -5 -1 -12 -3 -16
-4 -5 0 -26 -10 -48 -21 -48 -25 -90 -68 -112 -117 -9 -21 -20 -38 -25 -38 -4
0 -5 -4 -2 -10 3 -5 1 -10 -4 -10 -6 0 -10 -3 -9 -7 1 -5 -4 -21 -11 -38 -7
-16 -12 -32 -11 -34 1 -2 -3 -7 -8 -10 -6 -3 -12 -15 -14 -26 -1 -11 -7 -23
-11 -26 -4 -3 -9 -16 -10 -27 -1 -12 -8 -22 -17 -23 -10 0 -11 -2 -3 -6 9 -3
9 -11 -3 -29 -9 -13 -13 -24 -9 -24 4 0 2 -7 -5 -15 -7 -8 -9 -15 -4 -15 4 0
3 -5 -4 -12 -7 -7 -12 -20 -12 -30 0 -10 -4 -18 -8 -18 -4 0 -9 -10 -9 -22 -1
-13 -7 -24 -13 -26 -5 -2 -7 -8 -4 -13 3 -6 0 -16 -6 -24 -7 -8 -9 -15 -5 -15
4 0 0 -12 -10 -26 -11 -18 -12 -24 -4 -18 11 6 12 5 2 -8 -7 -8 -10 -18 -6
-21 3 -4 1 -7 -5 -7 -7 0 -11 -3 -10 -7 2 -13 -14 -67 -24 -80 -5 -7 -7 -17
-3 -23 3 -5 1 -10 -5 -10 -6 0 -9 -4 -5 -9 3 -5 0 -13 -6 -16 -5 -4 -8 -13 -5
-21 3 -8 1 -14 -5 -14 -6 0 -7 -4 -4 -10 3 -5 2 -10 -4 -10 -6 0 -8 -7 -5 -15
4 -8 1 -15 -5 -15 -6 0 -8 -7 -4 -16 3 -9 1 -19 -5 -23 -6 -3 -12 -18 -14 -31
-2 -14 -9 -35 -16 -47 -7 -13 -10 -23 -6 -23 3 0 1 -6 -5 -13 -6 -8 -8 -17 -4
-20 3 -4 1 -7 -6 -7 -8 0 -11 -7 -7 -15 3 -8 2 -15 -2 -15 -4 0 -8 -10 -9 -22
-1 -11 -8 -25 -15 -29 -7 -4 -9 -11 -5 -15 4 -4 0 -18 -8 -31 -12 -17 -12 -23
-3 -23 8 0 5 -5 -5 -11 -9 -6 -15 -15 -11 -20 3 -5 0 -16 -6 -24 -6 -8 -9 -18
-6 -24 3 -5 -1 -11 -9 -14 -8 -4 -12 -15 -10 -27 2 -11 -1 -20 -6 -20 -6 0 -7
-4 -4 -10 3 -5 1 -10 -5 -10 -6 0 -9 -4 -6 -8 3 -5 -2 -22 -10 -38 -9 -16 -18
-38 -20 -48 -2 -11 -9 -23 -15 -27 -8 -5 -8 -8 0 -10 6 -2 1 -15 -13 -32 l-24
-28 2 25 c0 13 4 22 7 20 7 -4 1 94 -6 106 -3 5 -1 10 5 12 7 2 7 14 1 36 -5
18 -6 30 -1 27 5 -3 8 4 7 15 -1 11 -5 20 -10 20 -4 0 -5 6 0 13 11 17 11 29
1 50 -5 9 -5 17 -1 17 4 0 8 27 8 59 1 35 -3 57 -9 54 -5 -4 -6 -1 0 8 4 8 9
68 9 134 1 67 5 126 9 133 4 7 3 12 -1 12 -9 0 -8 203 1 226 3 7 0 15 -7 18
-7 4 -8 8 -2 11 11 5 11 177 0 195 -3 5 -2 10 4 10 6 0 8 6 6 13 -3 6 13 47
34 89 22 43 43 92 47 110 10 50 12 168 2 168 -4 0 -7 3 -7 8 4 22 -5 41 -35
75 -19 20 -38 37 -44 37 -5 0 -13 7 -16 16 -3 8 -10 12 -16 9 -5 -3 -10 -2
-10 3 0 12 -145 77 -162 74 -5 -1 -8 2 -8 8 0 6 -9 10 -20 10 -11 0 -20 3 -20
8 0 4 -11 8 -25 8 -14 1 -33 5 -43 10 -19 9 -49 15 -75 15 -9 0 -15 4 -12 9 3
5 -81 9 -186 10 -129 0 -189 -3 -184 -10z"/>
</g>
</svg>
